<?xml version="1.0" encoding="UTF-8"?>
<svg id="Layer_1" data-name="Layer 1" xmlns="http://www.w3.org/2000/svg" viewBox="0 0 102.28 32">
  <defs>
    <style>
      .cls-1 {
        fill: #fff;
      }
    </style>
  </defs>
  <path class="cls-1" d="m50.62,11c-.72,0-1.35.37-1.71.94-1.02-.6-2.2-.94-3.47-.94-3.8,0-6.88,3.08-6.88,6.88s3.08,6.88,6.88,6.88c1.13,0,2.2-.28,3.15-.76h0c-.06,2.06-1.75,3.71-3.83,3.71-1.1,0-2.15-.48-2.88-1.3l-3.22,2.83c1.54,1.76,3.77,2.77,6.1,2.77,4.48,0,8.12-3.64,8.12-8.12v-12.88h-2.27Zm-5.17,9.47c-1.43,0-2.59-1.16-2.59-2.59s1.16-2.59,2.59-2.59,2.59,1.16,2.59,2.59-1.16,2.59-2.59,2.59Zm15.13-9.47c-3.8,0-6.88,3.08-6.88,6.88s3.08,6.88,6.88,6.88,6.88-3.08,6.88-6.88-3.08-6.88-6.88-6.88Zm0,9.47c-1.43,0-2.59-1.16-2.59-2.59s1.16-2.59,2.59-2.59,2.59,1.16,2.59,2.59-1.16,2.59-2.59,2.59Zm-27.23-7.44v9.54c0,1.12-.91,2.02-2.02,2.02h-2.27v-13.59h2.27c1.12,0,2.02.91,2.02,2.02Zm-26.47-2.02c-.92,0-1.79.18-2.59.51v-4.18c0-1.12-.91-2.02-2.02-2.02H0v17.26c0,1.12.91,2.02,2.02,2.02h2.27v-.47c.7.41,1.56.62,2.41.64.06,0,.12,0,.18,0,3.8,0,6.88-3.08,6.88-6.88s-3.08-6.88-6.88-6.88Zm0,9.47c-1.43,0-2.59-1.16-2.59-2.59s1.16-2.59,2.59-2.59,2.59,1.16,2.59,2.59-1.16,2.59-2.59,2.59Zm14.53-9.47c-3.8,0-6.88,3.08-6.88,6.88s3.08,6.88,6.88,6.88,6.88-3.08,6.88-6.88-3.08-6.88-6.88-6.88Zm0,9.47c-1.43,0-2.59-1.16-2.59-2.59s1.16-2.59,2.59-2.59,2.59,1.16,2.59,2.59-1.16,2.59-2.59,2.59Zm16.18-9.13c1.12.67,1.47,2.12.8,3.24s-2.12,1.47-3.24.8c-1.12-.67-1.47-2.12-.8-3.24s2.12-1.47,3.24-.8Z"/>
  <path class="cls-1" d="m102.28,15.51l-1.53-8.81c-.02-.1-.08-.19-.17-.23l-7.29-3.81L86.7.02c-.09-.03-.18-.03-.27.01l-8.94,4.42s-.05.03-.07.05l-.06.07s-.02.03-.02.04l-4.28,10.29s-.01.03-.01.04v.05s0,.05,0,.05c0,.03,0,.06.02.09l3.26,8.75c.02.06.06.11.11.15l5.75,4.19h.02s0,0,.01,0l7.92,1.81s.05,0,.07,0c.06,0,.13-.02.18-.05l7.62-5.04,3.68-3.15s.06-.06.08-.11v-.03s.03-.05.03-.08l.49-5.99s0-.06,0-.08Zm-17.84,12.57l7.8-.65-2.14,1.95-5.66-1.29Zm-7.33-4.34l2.54-2.67,2.03,5.99-4.57-3.33Zm-.37-.56l-2.65-7.1,4.87,2.95.46,1.35-2.68,2.81Zm15.55-20.21l-6.01,2.4.57-4.58,5.44,2.18Zm-12.53,9.81l-.78,5.48-4.92-3.17,5.7-2.31Zm.71-.38l2.32-2.71-2.89,6.73.57-4.02Zm-.18-.79l-2.1-6.23,5.22,2.57-3.13,3.66Zm4.91-5.51l-1.33,1.34-4.29-2.11,5.61.77Zm4.99,11.38l-10.44.94,4.26-9.92,6.18,8.97Zm1.4.17l6.97-4.19-3.68,5.14-3.3-.95Zm3.04,1.55l-1.47,6.43-1.92-7.4,3.39.98Zm-3.47-2.06l.49-5.67,7.15,1.08-7.64,4.59Zm-.15-5.84l-.48,5.52-5.67-8.22,6.14,2.7Zm1.6,14.81l-5.38-4.45,3.38-3.28,2,7.73Zm-2.72-7.95l-3.23,3.14-6-2.31,9.22-.83Zm2.46,8.59l-9.35.78,3.81-5.38,5.55,4.59Zm8.42-5.13l-7.1,4.67,1.57-6.87,5.52,2.2Zm-6.56-17.76l5.87,3.07-.56,4.54-5.32-7.61Zm5.36,9.31l1.48,7.85-5.52-2.2,4.04-5.65Zm.94,1.47l-.43-2.29.41-3.38,1.05,6.07-1.04-.4Zm-1.46-2.71l-7.29-1.1,1.58-7.08,5.71,8.18Zm-7.92-1.29l-6.43-2.83,8.01-4.24-1.58,7.07Zm-5.51-5.15l-6.87-.94,7.44-3.68-.57,4.62Zm-11.65,8.93l3.65-8.76,2.15,6.41-5.8,2.35Zm12.27,7.42l-3.8,5.37-2.66-7.85,6.46,2.48Zm14.42-6.44l.97.38-.27,3.33-.7-3.71Z"/>
  <path class="cls-1" d="m66.66,12.17h0c0-.81.65-1.48,1.46-1.48s1.46.66,1.46,1.46h0c0,.81-.65,1.48-1.46,1.48s-1.46-.66-1.46-1.46Zm2.76,0h0c0-.72-.55-1.31-1.29-1.31s-1.29.6-1.29,1.31h0c0,.72.55,1.31,1.29,1.31s1.29-.6,1.29-1.31Zm-1.9-.79h.71c.35,0,.61.16.61.5,0,.24-.13.4-.34.47l.39.55h-.45l-.33-.48h-.24v.48h-.37v-1.52Zm.69.74c.17,0,.26-.08.26-.21,0-.13-.1-.21-.26-.21h-.32v.42h.32Z"/>
</svg>