<svg width="468" height="720" viewBox="0 0 468 720" fill="none" xmlns="http://www.w3.org/2000/svg">
<g clip-path="url(#clip0_0_1730)">
<g filter="url(#filter0_d_0_1730)">
<rect x="40" y="380" width="388" height="340" fill="#D9D9D9"/>
</g>
<g clip-path="url(#clip1_0_1730)">
<rect x="390" y="8.5" width="70" height="70" rx="23" fill="#5E9CB0"/>
<path fill-rule="evenodd" clip-rule="evenodd" d="M22 0.582031C9.68094 1.59833 0 11.9185 0 24.4999V124.5H420H22V0.582031Z" fill="#373368"/>
<path fill-rule="evenodd" clip-rule="evenodd" d="M48 124.5H468V78.7399C468 70.253 464.629 62.1137 458.627 56.1125L412.388 9.87275C406.679 4.16441 399.036 0.835449 391 0.52417V124.5H48Z" fill="#373368"/>
<rect x="22" y="0.5" width="369" height="124" fill="#373368"/>
</g>
<g clip-path="url(#clip2_0_1730)">
<g clip-path="url(#clip3_0_1730)">
<rect y="72" width="468" height="526" fill="#373368"/>
</g>
<g clip-path="url(#clip4_0_1730)">
<path d="M0 598H468V696C468 709.255 457.255 720 444 720H24C10.7452 720 0 709.255 0 696V598Z" fill="#373368"/>
</g>
</g>
</g>
<defs>
<filter id="filter0_d_0_1730" x="8" y="368" width="452" height="404" filterUnits="userSpaceOnUse" color-interpolation-filters="sRGB">
<feFlood flood-opacity="0" result="BackgroundImageFix"/>
<feColorMatrix in="SourceAlpha" type="matrix" values="0 0 0 0 0 0 0 0 0 0 0 0 0 0 0 0 0 0 127 0" result="hardAlpha"/>
<feOffset dy="20"/>
<feGaussianBlur stdDeviation="16"/>
<feColorMatrix type="matrix" values="0 0 0 0 0 0 0 0 0 0 0 0 0 0 0 0 0 0 0.25 0"/>
<feBlend mode="normal" in2="BackgroundImageFix" result="effect1_dropShadow_0_1730"/>
<feBlend mode="normal" in="SourceGraphic" in2="effect1_dropShadow_0_1730" result="shape"/>
</filter>
<clipPath id="clip0_0_1730">
<rect width="468" height="719.5" fill="white" transform="translate(0 0.5)"/>
</clipPath>
<clipPath id="clip1_0_1730">
<rect width="468" height="124" fill="white" transform="translate(0 0.5)"/>
</clipPath>
<clipPath id="clip2_0_1730">
<rect width="468" height="648" fill="white" transform="translate(0 72)"/>
</clipPath>
<clipPath id="clip3_0_1730">
<rect width="468" height="526" fill="white" transform="translate(0 72)"/>
</clipPath>
<clipPath id="clip4_0_1730">
<rect width="468" height="122" fill="white" transform="translate(0 598)"/>
</clipPath>
</defs>
</svg>
