<svg width="212" height="66" viewBox="0 0 212 66" fill="none" xmlns="http://www.w3.org/2000/svg">
<path fill-rule="evenodd" clip-rule="evenodd" d="M8.83946 23.7763C10.4878 23.0963 12.2805 22.7254 14.1761 22.7254C22.0059 22.7254 28.3522 29.0723 28.3522 36.903C28.3522 44.7336 22.0059 51.0806 14.1761 51.0806H13.8052C12.0538 51.0393 10.2818 50.6066 8.83946 49.7617V50.7302H4.16217C1.87504 50.7302 0 48.8756 0 46.5676V11H4.67729C6.96442 11 8.83946 12.8546 8.83946 15.1626V23.7763ZM68.717 26.888V46.547C68.717 48.855 66.842 50.7096 64.5548 50.7096H59.8776V22.7048H64.5548C66.8626 22.7048 68.717 24.58 68.717 26.8674V26.888ZM100.778 24.6418C101.52 23.4672 102.818 22.7048 104.302 22.7048L104.281 22.7254H108.958V49.2671C108.958 58.4991 101.458 66 92.2271 66C87.4262 66 82.8313 63.9187 79.6582 60.2919L86.2929 54.4601C87.7971 56.1499 89.9606 57.139 92.2271 57.139C96.5129 57.139 99.9951 53.7389 100.119 49.4938C98.1613 50.483 95.9566 51.0599 93.6282 51.0599C85.7984 51.0599 79.4521 44.713 79.4521 36.8824C79.4521 29.0517 85.7984 22.7048 93.6282 22.7048C96.245 22.7048 98.6764 23.4054 100.778 24.6418ZM88.3122 36.8824C88.3122 39.8292 90.7023 42.2196 93.6488 42.2196C96.5953 42.2196 98.9855 39.8292 98.9855 36.8824C98.9855 33.9356 96.5953 31.5451 93.6488 31.5451C90.7023 31.5451 88.3122 33.9356 88.3122 36.8824ZM124.824 22.7048C116.994 22.7048 110.648 29.0517 110.648 36.8824C110.648 44.713 116.994 51.0599 124.824 51.0599C132.654 51.0599 139 44.713 139 36.8824C139 29.0517 132.654 22.7048 124.824 22.7048ZM119.487 36.8824C119.487 39.8292 121.877 42.2196 124.824 42.2196C127.77 42.2196 130.161 39.8292 130.161 36.8824C130.161 33.9356 127.77 31.5451 124.824 31.5451C121.877 31.5451 119.487 33.9356 119.487 36.8824ZM14.1761 42.2402C11.2296 42.2402 8.83946 39.8498 8.83946 36.903C8.83946 33.9562 11.2296 31.5658 14.1761 31.5658C17.1226 31.5658 19.5127 33.9562 19.5127 36.903C19.5127 39.8498 17.1226 42.2402 14.1761 42.2402ZM29.9388 36.903C29.9388 29.0723 36.2851 22.7254 44.1149 22.7254C51.9447 22.7254 58.291 29.0723 58.291 36.903C58.291 44.7336 51.9447 51.0806 44.1149 51.0806C36.2851 51.0806 29.9388 44.7336 29.9388 36.903ZM44.1149 42.2402C41.1684 42.2402 38.7782 39.8498 38.7782 36.903C38.7782 33.9562 41.1684 31.5658 44.1149 31.5658C47.0614 31.5658 49.4515 33.9562 49.4515 36.903C49.4515 39.8498 47.0614 42.2402 44.1149 42.2402ZM79.1018 30.1027C80.4824 27.7947 79.7612 24.8067 77.4535 23.426C75.1457 22.0453 72.158 22.7666 70.7775 25.0746C69.397 27.3825 70.1181 30.3706 72.4259 31.7512C74.7336 33.1319 77.7213 32.4106 79.1018 30.1027Z" fill="white"/>
<path fill-rule="evenodd" clip-rule="evenodd" d="M211.979 32.0234L208.787 13.8351C208.746 13.6286 208.62 13.4428 208.433 13.3602L193.224 5.49445L179.476 0.0441482C179.289 -0.017787 179.101 -0.017787 178.913 0.0647933L160.263 9.18991C160.263 9.18991 160.158 9.25185 160.117 9.29314L159.991 9.43765C159.991 9.43765 159.95 9.49959 159.95 9.52024L151.021 30.764C151.021 30.764 151 30.8259 151 30.8466V30.9498V31.053C151 31.115 151 31.1769 151.042 31.2388L157.843 49.3033C157.884 49.4272 157.968 49.5304 158.072 49.613L170.068 58.2632H170.109H170.13L186.653 62H186.799C186.924 62 187.07 61.9587 187.174 61.8968L203.071 51.4917L210.748 44.9885C210.748 44.9885 210.873 44.8646 210.915 44.7614V44.6994C210.915 44.6994 210.978 44.5962 210.978 44.5343L212 32.1679V32.0027L211.979 32.0234ZM174.762 57.9742L191.034 56.6323L186.569 60.6581L174.762 57.9949V57.9742ZM159.482 49.0021L159.47 49.0143V48.9936L159.482 49.0021ZM159.482 49.0021L164.769 43.502L169.004 55.8684L159.482 49.0021ZM158.698 47.8581L153.17 33.2001L163.329 39.2904L164.289 42.0775L158.698 47.8788V47.8581ZM178.6 11.0893L191.138 6.13444L179.789 1.63382L178.6 11.0893ZM164.998 26.3873L163.371 37.7008L153.107 31.1563L164.998 26.3873ZM171.319 20.0079L166.479 25.6027L165.29 33.9021L171.319 20.0079ZM166.104 23.9718L166.098 23.9545L172.613 16.4157L161.723 11.1099L166.098 23.9545L166.083 23.9718H166.104ZM173.573 15.3628L176.347 12.5963H176.326L164.623 11.0067L173.573 15.3628ZM186.757 36.0904L164.977 38.0311L173.865 17.5512L186.757 36.0698V36.0904ZM204.219 27.7911L189.678 36.4414H189.657L196.541 38.4027L204.219 27.7911ZM196.02 39.6414L196.015 39.6608L188.948 37.6388L192.953 52.9162L196.015 39.6608L196.02 39.662V39.6414ZM189.803 23.6828L188.781 35.3885L204.719 25.9124L189.803 23.6828ZM188.468 23.3318L187.466 34.7279L175.638 17.7576L188.447 23.3318H188.468ZM180.582 44.7201L191.806 53.9071L187.633 37.9485L180.582 44.7201ZM186.131 37.4943L179.393 43.9769L166.876 39.2078L186.11 37.4943H186.131ZM171.758 56.8387L191.263 55.2284L191.284 55.2078L179.706 45.7317L171.758 56.8387ZM208.829 44.6375L194.017 54.2787L197.292 40.0956L208.808 44.6375H208.829ZM207.39 14.3099L195.144 7.97185H195.123L206.221 23.6828L207.39 14.3099ZM206.326 27.1924L209.413 43.3988L197.897 38.8569L206.326 27.1924ZM207.39 25.4995L208.287 30.2272H208.266L210.435 31.053L208.245 18.5215L207.39 25.4995ZM205.241 24.6324L190.032 22.3615L193.329 7.74476L205.241 24.6324ZM175.304 16.1267L188.718 21.9692L192.014 7.37315L175.304 16.1267ZM177.223 11.337L162.891 9.39636L178.412 1.79898L177.223 11.337ZM160.534 11.688L152.919 29.773L165.019 24.9215L160.534 11.688ZM178.517 45.0917L170.589 56.1781L165.04 39.9717L178.517 45.0917ZM210.623 32.5808L208.6 31.7963L210.06 39.4556L210.623 32.5808Z" fill="white"/>
<path fill-rule="evenodd" clip-rule="evenodd" d="M140 22C138.336 22 137 23.3673 137 25.0204C137 26.6531 138.336 28 140 28C141.664 28 143 26.6327 143 24.9796C143 23.3469 141.664 22 140 22ZM140.021 22.3469C141.541 22.3469 142.671 23.551 142.671 25.0204C142.671 26.4694 141.541 27.6939 140.021 27.6939C138.5 27.6939 137.37 26.4898 137.37 25.0204C137.37 23.5714 138.5 22.3469 140.021 22.3469ZM138.767 23.4082H140.226C140.945 23.4082 141.479 23.7347 141.479 24.4286C141.479 24.9184 141.212 25.2449 140.781 25.3878L141.582 26.5102H140.658L139.979 25.5306H139.486V26.5102H138.726V23.4082H138.767ZM140.719 24.4898C140.719 24.7551 140.534 24.9184 140.185 24.9184H139.527V24.0612H140.185C140.514 24.0612 140.719 24.2245 140.719 24.4898Z" fill="white"/>
</svg>
