<svg width="417" height="431" viewBox="0 0 417 431" fill="none" xmlns="http://www.w3.org/2000/svg">
<path opacity="0.326497" fill-rule="evenodd" clip-rule="evenodd" d="M541.17 267.453C541.173 267.235 541.146 267.016 541.091 266.799L500.975 104.175C500.782 103.389 500.23 102.736 499.49 102.411L358.712 40.8896L232.124 0.153994C231.421 -0.0719379 230.652 0.00717715 230.012 0.384943L68.7004 94.5895C68.3977 94.7627 68.1506 95.0081 67.9416 95.2797C67.932 95.2985 67.9071 95.3038 67.8939 95.3229C67.8609 95.3686 67.8652 95.4298 67.8361 95.4789C67.7286 95.6494 67.6097 95.8133 67.5436 96.0062L0.966703 293.802C0.900816 293.999 0.900766 294.205 0.882457 294.409C0.875682 294.468 0.835483 294.514 0.832563 294.576C0.830724 294.601 0.850244 294.621 0.852007 294.647C0.852238 295.012 0.910097 295.374 1.0642 295.714L73.4488 455.039C73.6624 455.506 74.0047 455.898 74.4401 456.172L186.414 526.267C186.418 526.27 186.421 526.27 186.425 526.27C186.693 526.436 186.99 526.538 187.302 526.599C187.335 526.604 187.362 526.628 187.395 526.633L336.926 549.93C337.12 549.96 337.316 549.968 337.507 549.954C338.015 549.919 338.502 549.736 338.91 549.422L474.394 445.58L539.088 381.883C539.342 381.63 539.534 381.327 539.667 381.003C539.685 380.955 539.682 380.904 539.696 380.852C539.783 380.596 539.863 380.334 539.865 380.055L541.17 267.453Z" fill="#101010"/>
</svg>
