<svg width="232" height="537" viewBox="0 0 232 537" fill="none" xmlns="http://www.w3.org/2000/svg">
<path opacity="0.326497" fill-rule="evenodd" clip-rule="evenodd" d="M220.799 234.222C220.78 234.005 220.731 233.79 220.653 233.58L163.757 76.0406C163.484 75.2784 162.866 74.6869 162.097 74.4412L15.6593 27.972L-114.493 0.691598C-115.216 0.540437 -115.973 0.699502 -116.569 1.14205L-267.151 111.692C-267.434 111.896 -267.654 112.166 -267.833 112.458C-267.841 112.478 -267.865 112.486 -267.876 112.506C-267.904 112.555 -267.893 112.615 -267.917 112.667C-268.006 112.848 -268.107 113.023 -268.153 113.222L-313.69 316.894C-313.735 317.096 -313.713 317.301 -313.71 317.506C-313.711 317.565 -313.746 317.615 -313.742 317.677C-313.742 317.702 -313.72 317.721 -313.716 317.745C-313.677 318.109 -313.582 318.463 -313.393 318.785L-224.751 469.671C-224.49 470.113 -224.108 470.467 -223.647 470.694L-104.96 528.7C-104.955 528.703 -104.952 528.703 -104.948 528.702C-104.664 528.839 -104.358 528.91 -104.041 528.938C-104.008 528.94 -103.979 528.96 -103.946 528.962L47.2018 536.501C47.3978 536.51 47.5936 536.498 47.782 536.465C48.2834 536.376 48.7483 536.144 49.1219 535.788L173.009 418.354L230.69 348.243C230.916 347.965 231.076 347.644 231.174 347.307C231.187 347.257 231.179 347.207 231.188 347.154C231.247 346.891 231.299 346.621 231.272 346.344L220.799 234.222Z" fill="#373368"/>
</svg>
