<svg width="228" height="537" viewBox="0 0 228 537" fill="none" xmlns="http://www.w3.org/2000/svg">
<path opacity="0.326497" fill-rule="evenodd" clip-rule="evenodd" d="M216.8 234.222C216.78 234.005 216.731 233.79 216.654 233.58L159.758 76.0406C159.484 75.2784 158.867 74.6869 158.097 74.4412L11.6599 27.972L-118.493 0.691598C-119.216 0.540437 -119.972 0.699501 -120.569 1.14205L-271.15 111.692C-271.433 111.896 -271.653 112.166 -271.833 112.458C-271.84 112.478 -271.864 112.486 -271.876 112.506C-271.904 112.555 -271.893 112.615 -271.917 112.667C-272.006 112.848 -272.107 113.023 -272.153 113.222L-317.689 316.894C-317.734 317.096 -317.713 317.301 -317.71 317.506C-317.71 317.565 -317.746 317.615 -317.742 317.677C-317.741 317.702 -317.72 317.721 -317.715 317.745C-317.677 318.109 -317.581 318.463 -317.393 318.785L-228.751 469.671C-228.489 470.113 -228.108 470.467 -227.646 470.694L-108.959 528.7C-108.955 528.703 -108.951 528.703 -108.948 528.702C-108.663 528.839 -108.358 528.91 -108.041 528.938C-108.008 528.94 -107.978 528.96 -107.945 528.962L43.2023 536.501C43.3983 536.51 43.5941 536.498 43.7825 536.465C44.2839 536.376 44.7489 536.144 45.1224 535.788L169.009 418.354L226.691 348.243C226.917 347.965 227.076 347.644 227.175 347.307C227.188 347.257 227.179 347.207 227.188 347.154C227.248 346.891 227.299 346.621 227.272 346.344L216.8 234.222Z" fill="#373368"/>
</svg>
