<svg width="222" height="537" viewBox="0 0 222 537" fill="none" xmlns="http://www.w3.org/2000/svg">
<path opacity="0.326497" fill-rule="evenodd" clip-rule="evenodd" d="M534.8 234.222C534.78 234.006 534.731 233.791 534.654 233.58L477.758 76.0408C477.484 75.2787 476.867 74.6872 476.097 74.4415L329.66 27.9722L199.507 0.691842C198.784 0.540681 198.028 0.699745 197.431 1.14229L46.8499 111.692C46.5669 111.896 46.3468 112.166 46.1673 112.458C46.1598 112.478 46.1355 112.486 46.1245 112.506C46.0964 112.555 46.1071 112.616 46.0832 112.667C45.9941 112.848 45.8931 113.024 45.8475 113.222L0.310625 316.894C0.265635 317.096 0.287154 317.302 0.29027 317.506C0.289636 317.565 0.254492 317.615 0.258041 317.677C0.258875 317.703 0.280413 317.721 0.284802 317.746C0.323248 318.109 0.418587 318.463 0.60742 318.785L89.2495 469.671C89.5107 470.113 89.8921 470.467 90.3537 470.694L209.041 528.701C209.045 528.704 209.049 528.703 209.052 528.702C209.337 528.839 209.642 528.91 209.959 528.939C209.992 528.94 210.022 528.96 210.055 528.962L361.202 536.501C361.398 536.511 361.594 536.498 361.783 536.465C362.284 536.376 362.749 536.144 363.122 535.789L487.009 418.354L544.691 348.243C544.917 347.965 545.076 347.644 545.175 347.307C545.188 347.257 545.179 347.208 545.188 347.155C545.248 346.891 545.299 346.622 545.272 346.344L534.8 234.222Z" fill="#373368"/>
</svg>
