<svg width="333" height="550" viewBox="0 0 333 550" fill="none" xmlns="http://www.w3.org/2000/svg">
<path opacity="0.326497" fill-rule="evenodd" clip-rule="evenodd" d="M541.17 267.453C541.173 267.235 541.147 267.016 541.092 266.799L500.975 104.175C500.782 103.389 500.23 102.736 499.491 102.411L358.713 40.8896L232.125 0.153994C231.421 -0.0719377 230.652 0.0071767 230.013 0.384943L68.7008 94.5895C68.398 94.7627 68.151 95.0081 67.942 95.2797C67.9324 95.2985 67.9074 95.3038 67.8943 95.3229C67.8613 95.3686 67.8656 95.4298 67.8364 95.4789C67.7289 95.6494 67.6101 95.8133 67.544 96.0062L0.967069 293.802C0.901181 293.999 0.901133 294.205 0.882823 294.409C0.876049 294.468 0.83585 294.514 0.832929 294.576C0.831091 294.601 0.85061 294.621 0.852373 294.647C0.852603 295.012 0.910463 295.374 1.06456 295.714L73.4492 455.039C73.6628 455.506 74.0051 455.898 74.4404 456.172L186.414 526.267C186.418 526.27 186.422 526.27 186.425 526.27C186.694 526.436 186.99 526.538 187.302 526.599C187.335 526.604 187.362 526.628 187.395 526.633L336.927 549.93C337.12 549.96 337.317 549.968 337.507 549.954C338.015 549.919 338.502 549.736 338.911 549.422L474.394 445.58L539.088 381.883C539.342 381.63 539.534 381.327 539.667 381.003C539.686 380.955 539.682 380.904 539.697 380.852C539.784 380.596 539.863 380.334 539.865 380.055L541.17 267.453Z" fill="#101010"/>
</svg>
