<svg width="271" height="550" viewBox="0 0 271 550" fill="none" xmlns="http://www.w3.org/2000/svg">
<path opacity="0.326497" fill-rule="evenodd" clip-rule="evenodd" d="M270.17 267.453C270.173 267.235 270.147 267.016 270.092 266.799L229.975 104.175C229.782 103.389 229.23 102.736 228.491 102.411L87.7127 40.8896L-38.8752 0.153994C-39.5787 -0.0719377 -40.3477 0.0071767 -40.9872 0.384943L-202.299 94.5895C-202.602 94.7627 -202.849 95.0081 -203.058 95.2797C-203.068 95.2985 -203.093 95.3038 -203.106 95.3229C-203.139 95.3686 -203.134 95.4298 -203.164 95.4789C-203.271 95.6494 -203.39 95.8133 -203.456 96.0062L-270.033 293.802C-270.099 293.999 -270.099 294.205 -270.117 294.409C-270.124 294.468 -270.164 294.514 -270.167 294.576C-270.169 294.601 -270.149 294.621 -270.148 294.647C-270.147 295.012 -270.09 295.374 -269.935 295.714L-197.551 455.039C-197.337 455.506 -196.995 455.898 -196.56 456.172L-84.5859 526.267C-84.5821 526.27 -84.5785 526.27 -84.5749 526.27C-84.3063 526.436 -84.0096 526.538 -83.6976 526.599C-83.6647 526.604 -83.6377 526.628 -83.6048 526.633L65.9266 549.93C66.1205 549.96 66.3165 549.968 66.5074 549.954C67.0153 549.919 67.502 549.736 67.9107 549.422L203.394 445.58L268.088 381.883C268.342 381.63 268.534 381.327 268.667 381.003C268.686 380.955 268.682 380.904 268.697 380.852C268.784 380.596 268.863 380.334 268.865 380.055L270.17 267.453Z" fill="#101010"/>
</svg>
