<svg width="18" height="18" viewBox="0 0 18 18" fill="none" xmlns="http://www.w3.org/2000/svg">
<g clip-path="url(#clip0_0_6480)">
<path d="M8.99749 11.7145C10.4965 11.7145 11.7118 10.4992 11.7118 9.00018C11.7118 7.50112 10.4965 6.28589 8.99749 6.28589C7.49843 6.28589 6.2832 7.50112 6.2832 9.00018C6.2832 10.4992 7.49843 11.7145 8.99749 11.7145Z" fill="#808080"/>
<path fill-rule="evenodd" clip-rule="evenodd" d="M12.3905 0.8573H5.60479C2.98618 0.8573 0.855469 2.98869 0.855469 5.60798V12.3937C0.855469 15.0123 2.98686 17.143 5.60615 17.143H12.3919C15.0105 17.143 17.1412 15.0116 17.1412 12.3923V5.60662C17.1412 2.98801 15.0098 0.8573 12.3905 0.8573ZM8.99833 13.0716C6.75293 13.0716 4.9269 11.2455 4.9269 9.00016C4.9269 6.75476 6.75293 4.92873 8.99833 4.92873C11.2437 4.92873 13.0698 6.75476 13.0698 9.00016C13.0698 11.2455 11.2437 13.0716 8.99833 13.0716ZM13.0698 4.25016C13.0698 4.62473 13.3738 4.92873 13.7484 4.92873C14.1229 4.92873 14.4269 4.62473 14.4269 4.25016C14.4269 3.87559 14.1229 3.57159 13.7484 3.57159C13.3738 3.57159 13.0698 3.87559 13.0698 4.25016Z" fill="#808080"/>
</g>
<defs>
<clipPath id="clip0_0_6480">
<rect width="16.2857" height="16.2857" fill="white" transform="translate(0.855469 0.8573)"/>
</clipPath>
</defs>
</svg>
