<svg width="140" height="912" viewBox="0 0 140 912" fill="none" xmlns="http://www.w3.org/2000/svg">
<path opacity="0.04" d="M-10.9216 173.806L-10.9139 173.814L107.33 304.881C135.307 335.891 144.529 379.511 131.499 419.191L76.426 586.902L76.4224 586.913L22.0377 754.849C9.17041 794.583 -23.9938 824.379 -64.8736 832.935L-237.652 869.096L-237.663 869.098L-410.293 905.968C-451.137 914.692 -493.524 900.869 -521.373 869.744L-639.078 738.193L-639.086 738.184L-757.331 607.118C-785.307 576.108 -794.529 532.488 -781.499 492.808L-726.426 325.097L-726.422 325.086L-672.038 157.15C-659.171 117.417 -626.006 87.6195 -585.127 79.0643L-412.348 42.9029L-412.337 42.9006L-239.708 6.03118C-198.864 -2.69208 -156.477 11.1308 -128.628 42.2555L-10.9216 173.806Z" stroke="#EB5BE5" stroke-width="5.57721"/>
</svg>
