<svg width="26" height="11" viewBox="0 0 26 11" fill="none" xmlns="http://www.w3.org/2000/svg">
<g clip-path="url(#clip0_0_1727)">
<path d="M24 7C25.1046 7 26 7.89543 26 9C26 10.1046 25.1046 11 24 11L2 11C0.895401 11 -1.35705e-07 10.1046 -8.74228e-08 9C-3.91405e-08 7.89543 0.895401 7 2 7L24 7Z" fill="#5E6B7E"/>
<path d="M25.0702 7.24252C25.8512 8.02357 25.8512 9.2899 25.0702 10.071C24.2891 10.852 23.0228 10.852 22.2417 10.0709L16.4133 4.24253C15.6322 3.46146 15.6323 2.19515 16.4133 1.4141C17.1944 0.63305 18.4607 0.63303 19.2417 1.4141L25.0702 7.24252Z" fill="#5E6B7E"/>
</g>
<defs>
<clipPath id="clip0_0_1727">
<rect width="26.4844" height="11.4853" fill="white"/>
</clipPath>
</defs>
</svg>
