<svg width="140" height="930" viewBox="0 0 140 930" fill="none" xmlns="http://www.w3.org/2000/svg">
<path opacity="0.04" d="M123.379 62.1469L123.383 62.1512L310.994 270.105C339.305 301.487 348.633 345.628 335.454 385.786L248.068 651.879L248.066 651.885L161.783 918.338C148.754 958.548 115.199 988.698 73.8291 997.359L-200.307 1054.73L-200.313 1054.73L-474.21 1113.23C-515.544 1122.06 -558.438 1108.07 -586.62 1076.57L-773.378 867.853L-773.381 867.849L-960.991 659.895C-989.301 628.51 -998.636 584.373 -985.449 544.214L-898.069 278.12L-898.067 278.114L-811.779 11.6621C-798.757 -28.5469 -765.195 -58.7008 -723.827 -67.3594L-449.691 -124.734L-449.686 -124.735L-175.787 -183.232C-134.454 -192.06 -91.5594 -178.072 -63.3768 -146.574L123.379 62.1469Z" stroke="#EB5BE5" stroke-width="2.78861"/>
</svg>
