<svg width="420" height="420" viewBox="0 0 420 420" fill="none" xmlns="http://www.w3.org/2000/svg">
<g clip-path="url(#clip0_0_6071)">
<g filter="url(#filter0_d_0_6071)">
<rect x="40" y="80" width="340" height="340" fill="#D9D9D9"/>
</g>
<g clip-path="url(#clip1_0_6071)">
<path fill-rule="evenodd" clip-rule="evenodd" d="M22 0.0820312C9.68094 1.09833 0 11.4185 0 23.9999V124H420H22V0.0820312Z" fill="#373368"/>
<g filter="url(#filter1_d_0_6071)">
<path fill-rule="evenodd" clip-rule="evenodd" d="M0 124H420V78.2396C420 69.7527 416.629 61.6134 410.627 55.6122L364.388 9.37251C358.679 3.66417 351.036 0.335205 343 0.0239258V124H0Z" fill="#373368"/>
</g>
<rect x="22" width="321" height="124" fill="#373368"/>
</g>
<rect y="124" width="420" height="174" fill="#373368"/>
<g clip-path="url(#clip2_0_6071)">
<path d="M0 298H420V396C420 409.255 409.255 420 396 420H24C10.7452 420 0 409.255 0 396V298Z" fill="#373368"/>
</g>
</g>
<defs>
<filter id="filter0_d_0_6071" x="8" y="68" width="404" height="404" filterUnits="userSpaceOnUse" color-interpolation-filters="sRGB">
<feFlood flood-opacity="0" result="BackgroundImageFix"/>
<feColorMatrix in="SourceAlpha" type="matrix" values="0 0 0 0 0 0 0 0 0 0 0 0 0 0 0 0 0 0 127 0" result="hardAlpha"/>
<feOffset dy="20"/>
<feGaussianBlur stdDeviation="16"/>
<feColorMatrix type="matrix" values="0 0 0 0 0 0 0 0 0 0 0 0 0 0 0 0 0 0 0.25 0"/>
<feBlend mode="normal" in2="BackgroundImageFix" result="effect1_dropShadow_0_6071"/>
<feBlend mode="normal" in="SourceGraphic" in2="effect1_dropShadow_0_6071" result="shape"/>
</filter>
<filter id="filter1_d_0_6071" x="-4" y="0.0239258" width="428" height="131.976" filterUnits="userSpaceOnUse" color-interpolation-filters="sRGB">
<feFlood flood-opacity="0" result="BackgroundImageFix"/>
<feColorMatrix in="SourceAlpha" type="matrix" values="0 0 0 0 0 0 0 0 0 0 0 0 0 0 0 0 0 0 127 0" result="hardAlpha"/>
<feOffset dy="4"/>
<feGaussianBlur stdDeviation="2"/>
<feComposite in2="hardAlpha" operator="out"/>
<feColorMatrix type="matrix" values="0 0 0 0 0 0 0 0 0 0 0 0 0 0 0 0 0 0 0.25 0"/>
<feBlend mode="normal" in2="BackgroundImageFix" result="effect1_dropShadow_0_6071"/>
<feBlend mode="normal" in="SourceGraphic" in2="effect1_dropShadow_0_6071" result="shape"/>
</filter>
<clipPath id="clip0_0_6071">
<rect width="420" height="420" fill="white"/>
</clipPath>
<clipPath id="clip1_0_6071">
<rect width="420" height="124" fill="white"/>
</clipPath>
<clipPath id="clip2_0_6071">
<rect width="420" height="122" fill="white" transform="translate(0 298)"/>
</clipPath>
</defs>
</svg>
