<svg width="41" height="40" viewBox="0 0 41 40" fill="none" xmlns="http://www.w3.org/2000/svg">
<rect width="40" height="40" rx="20" stroke="#C54D1F" stroke-width="2"/>
<mask id="mask0_0_2320" style="mask-type:luminance" maskUnits="userSpaceOnUse" x="11" y="11" width="18" height="18">
<rect x="11.4287" y="11.4285" width="17.1429" height="17.1429" fill="white"/>
</mask>
<g mask="url(#mask0_0_2320)">
</g>
<g clip-path="url(#clip0_0_2320)">
<g clip-path="url(#clip1_0_2320)">
<path d="M28.5714 14.6966C27.9286 14.9645 27.2857 15.1787 26.5357 15.2323C27.2857 14.8037 27.8214 14.1073 28.0893 13.3037C27.3929 13.7323 26.6429 14.0002 25.8393 14.1609C25.1964 13.4645 24.2857 13.0359 23.3214 13.0359C21.3929 13.0359 19.7857 14.5895 19.7857 16.5716C19.7857 16.8395 19.8393 17.1073 19.8929 17.3752C16.9464 17.2144 14.375 15.8216 12.6071 13.6787C12.2857 14.2145 12.125 14.8037 12.125 15.4466C12.125 16.6787 12.7679 17.7502 13.6786 18.393C13.0893 18.393 12.5536 18.2323 12.0714 17.9644V18.018C12.0714 19.7323 13.3036 21.1252 14.9107 21.4466C14.5893 21.5002 14.3214 21.5537 14 21.5537C13.7857 21.5537 13.5714 21.5537 13.3571 21.5002C13.7857 22.893 15.125 23.9109 16.625 23.9645C15.4464 24.9288 13.8929 25.4645 12.2321 25.4645C11.9643 25.4645 11.6429 25.4645 11.375 25.4109C12.9821 26.3752 14.8571 26.9645 16.8393 26.9645C23.3214 26.9645 26.8571 21.6073 26.8571 16.9466C26.8571 16.7859 26.8571 16.6252 26.8571 16.518C27.5 15.9823 28.0893 15.393 28.5714 14.6966Z" fill="#808080"/>
</g>
</g>
<defs>
<clipPath id="clip0_0_2320">
<rect width="17.1964" height="13.9286" fill="white" transform="translate(11.375 13.0359)"/>
</clipPath>
<clipPath id="clip1_0_2320">
<rect width="17.1964" height="13.9286" fill="white" transform="translate(11.375 13.0359)"/>
</clipPath>
</defs>
</svg>
