<svg width="42" height="40" viewBox="0 0 42 40" fill="none" xmlns="http://www.w3.org/2000/svg">
<rect x="1" width="40" height="40" rx="20" stroke="#C54D1F" stroke-width="2"/>
<mask id="mask0_0_2327" style="mask-type:luminance" maskUnits="userSpaceOnUse" x="12" y="11" width="18" height="18">
<rect x="12.4287" y="11.4285" width="17.1429" height="17.1429" fill="white"/>
</mask>
<g mask="url(#mask0_0_2327)">
</g>
<g clip-path="url(#clip0_0_2327)">
<g clip-path="url(#clip1_0_2327)">
<path d="M20.9999 22.7142C22.499 22.7142 23.7142 21.499 23.7142 19.9999C23.7142 18.5009 22.499 17.2856 20.9999 17.2856C19.5009 17.2856 18.2856 18.5009 18.2856 19.9999C18.2856 21.499 19.5009 22.7142 20.9999 22.7142Z" fill="#808080"/>
<path fill-rule="evenodd" clip-rule="evenodd" d="M24.3919 11.8572H17.6063C14.9876 11.8572 12.8569 13.9886 12.8569 16.6079V23.3936C12.8569 26.0122 14.9883 28.1429 17.6076 28.1429H24.3933C27.0119 28.1429 29.1426 26.0115 29.1426 23.3922V16.6065C29.1426 13.9879 27.0112 11.8572 24.3919 11.8572ZM20.9998 24.0715C18.7544 24.0715 16.9284 22.2454 16.9284 20C16.9284 17.7546 18.7544 15.9286 20.9998 15.9286C23.2451 15.9286 25.0712 17.7546 25.0712 20C25.0712 22.2454 23.2451 24.0715 20.9998 24.0715ZM25.0712 15.25C25.0712 15.6246 25.3752 15.9286 25.7498 15.9286C26.1243 15.9286 26.4283 15.6246 26.4283 15.25C26.4283 14.8755 26.1243 14.5715 25.7498 14.5715C25.3752 14.5715 25.0712 14.8755 25.0712 15.25Z" fill="#808080"/>
</g>
</g>
<defs>
<clipPath id="clip0_0_2327">
<rect width="20.3571" height="20.3571" fill="white" transform="translate(10.8213 9.82104)"/>
</clipPath>
<clipPath id="clip1_0_2327">
<rect width="16.2857" height="16.2857" fill="white" transform="translate(12.8569 11.8572)"/>
</clipPath>
</defs>
</svg>
