<svg width="134" height="84" viewBox="0 0 134 84" fill="none" xmlns="http://www.w3.org/2000/svg">
<g clip-path="url(#clip0_0_4610)">
<rect x="51" y="-2.5" width="29" height="53" rx="12.5" fill="#17172C" stroke="#CB4F1E" stroke-width="5"/>
<rect x="63.5" y="10" width="4" height="16" rx="2" fill="#CB4F1E"/>
</g>
<path d="M3.852 83.108C3.172 83.108 2.556 83.024 2.004 82.856C1.452 82.68 0.972 82.432 0.564 82.112L0.984 81.128C1.256 81.336 1.536 81.508 1.824 81.644C2.12 81.78 2.432 81.884 2.76 81.956C3.096 82.02 3.46 82.052 3.852 82.052C4.524 82.052 5.016 81.932 5.328 81.692C5.648 81.452 5.808 81.136 5.808 80.744C5.808 80.408 5.696 80.148 5.472 79.964C5.256 79.78 4.872 79.632 4.32 79.52L3.012 79.256C2.236 79.096 1.656 78.836 1.272 78.476C0.896 78.108 0.708 77.608 0.708 76.976C0.708 76.464 0.844 76.016 1.116 75.632C1.388 75.248 1.764 74.952 2.244 74.744C2.732 74.536 3.3 74.432 3.948 74.432C4.548 74.432 5.1 74.52 5.604 74.696C6.108 74.864 6.532 75.116 6.876 75.452L6.468 76.4C6.108 76.088 5.724 75.86 5.316 75.716C4.908 75.564 4.444 75.488 3.924 75.488C3.308 75.488 2.824 75.616 2.472 75.872C2.128 76.128 1.956 76.476 1.956 76.916C1.956 77.268 2.064 77.544 2.28 77.744C2.504 77.944 2.872 78.096 3.384 78.2L4.692 78.452C5.5 78.62 6.096 78.88 6.48 79.232C6.864 79.576 7.056 80.052 7.056 80.66C7.056 81.148 6.924 81.576 6.66 81.944C6.404 82.312 6.036 82.6 5.556 82.808C5.076 83.008 4.508 83.108 3.852 83.108ZM12.9938 83.108C12.1298 83.108 11.3938 82.932 10.7858 82.58C10.1778 82.228 9.70975 81.728 9.38175 81.08C9.06175 80.424 8.90175 79.652 8.90175 78.764C8.90175 77.876 9.06175 77.108 9.38175 76.46C9.70975 75.812 10.1778 75.312 10.7858 74.96C11.3938 74.608 12.1298 74.432 12.9938 74.432C13.5938 74.432 14.1298 74.52 14.6018 74.696C15.0738 74.872 15.4858 75.128 15.8378 75.464L15.4058 76.46C15.0218 76.132 14.6458 75.896 14.2778 75.752C13.9178 75.608 13.4978 75.536 13.0178 75.536C12.1058 75.536 11.4098 75.816 10.9298 76.376C10.4498 76.936 10.2098 77.732 10.2098 78.764C10.2098 79.796 10.4498 80.596 10.9298 81.164C11.4098 81.724 12.1058 82.004 13.0178 82.004C13.4978 82.004 13.9178 81.932 14.2778 81.788C14.6458 81.644 15.0218 81.404 15.4058 81.068L15.8378 82.064C15.4858 82.4 15.0738 82.66 14.6018 82.844C14.1298 83.02 13.5938 83.108 12.9938 83.108ZM18.0046 83V74.54H21.5806C22.4846 74.54 23.1846 74.756 23.6806 75.188C24.1766 75.612 24.4246 76.208 24.4246 76.976C24.4246 77.48 24.3126 77.912 24.0886 78.272C23.8646 78.632 23.5486 78.908 23.1406 79.1C22.7326 79.284 22.2526 79.376 21.7006 79.376L21.8926 79.184H22.2166C22.5446 79.184 22.8366 79.268 23.0926 79.436C23.3566 79.604 23.5726 79.872 23.7406 80.24L24.9526 83H23.5846L22.3846 80.228C22.2646 79.9 22.0766 79.688 21.8206 79.592C21.5726 79.496 21.2646 79.448 20.8966 79.448H19.2526V83H18.0046ZM19.2526 78.5H21.3766C21.9766 78.5 22.4286 78.372 22.7326 78.116C23.0446 77.86 23.2006 77.492 23.2006 77.012C23.2006 76.524 23.0446 76.156 22.7326 75.908C22.4286 75.66 21.9766 75.536 21.3766 75.536H19.2526V78.5ZM26.6252 78.764C26.6252 77.876 26.7812 77.108 27.0932 76.46C27.4052 75.812 27.8572 75.312 28.4492 74.96C29.0492 74.608 29.7612 74.432 30.5852 74.432C31.4012 74.432 32.1052 74.608 32.6972 74.96C33.2892 75.312 33.7452 75.812 34.0652 76.46C34.3932 77.108 34.5572 77.872 34.5572 78.752C34.5572 79.64 34.3932 80.412 34.0652 81.068C33.7452 81.716 33.2852 82.22 32.6852 82.58C32.0932 82.932 31.3932 83.108 30.5852 83.108C29.7612 83.108 29.0532 82.932 28.4612 82.58C27.8692 82.22 27.4132 81.716 27.0932 81.068C26.7812 80.412 26.6252 79.644 26.6252 78.764ZM27.9332 78.764C27.9332 79.788 28.1572 80.588 28.6052 81.164C29.0532 81.74 29.7132 82.028 30.5852 82.028C31.4332 82.028 32.0892 81.744 32.5532 81.176C33.0172 80.6 33.2492 79.796 33.2492 78.764C33.2492 77.732 33.0172 76.932 32.5532 76.364C32.0972 75.796 31.4412 75.512 30.5852 75.512C29.7132 75.512 29.0532 75.796 28.6052 76.364C28.1572 76.932 27.9332 77.732 27.9332 78.764ZM36.8648 83V74.54H38.1128V81.932H42.2648V83H36.8648ZM44.0858 83V74.54H45.3338V81.932H49.4858V83H44.0858ZM57.1342 83V75.584H54.2422V74.54H61.2742V75.584H58.3822V83H57.1342ZM62.2267 78.764C62.2267 77.876 62.3827 77.108 62.6947 76.46C63.0067 75.812 63.4587 75.312 64.0507 74.96C64.6507 74.608 65.3627 74.432 66.1867 74.432C67.0027 74.432 67.7067 74.608 68.2987 74.96C68.8907 75.312 69.3467 75.812 69.6667 76.46C69.9947 77.108 70.1587 77.872 70.1587 78.752C70.1587 79.64 69.9947 80.412 69.6667 81.068C69.3467 81.716 68.8867 82.22 68.2867 82.58C67.6947 82.932 66.9947 83.108 66.1867 83.108C65.3627 83.108 64.6547 82.932 64.0627 82.58C63.4707 82.22 63.0147 81.716 62.6947 81.068C62.3827 80.412 62.2267 79.644 62.2267 78.764ZM63.5347 78.764C63.5347 79.788 63.7587 80.588 64.2067 81.164C64.6547 81.74 65.3147 82.028 66.1867 82.028C67.0347 82.028 67.6907 81.744 68.1547 81.176C68.6187 80.6 68.8507 79.796 68.8507 78.764C68.8507 77.732 68.6187 76.932 68.1547 76.364C67.6987 75.796 67.0427 75.512 66.1867 75.512C65.3147 75.512 64.6547 75.796 64.2067 76.364C63.7587 76.932 63.5347 77.732 63.5347 78.764ZM76.2655 83V74.54H81.8095V75.536H77.4775V78.2H81.5335V79.208H77.4775V81.992H81.8095V83H76.2655ZM82.9011 83L86.3331 78.428V78.932L83.0451 74.54H84.5091L87.0531 78.044H86.6691L89.1891 74.54H90.6651L87.3771 78.932V78.428L90.8091 83H89.3331L86.6331 79.304H87.0771L84.3651 83H82.9011ZM92.4187 83V74.54H96.0067C96.9107 74.54 97.6027 74.76 98.0827 75.2C98.5707 75.632 98.8147 76.232 98.8147 77C98.8147 77.768 98.5707 78.372 98.0827 78.812C97.6027 79.252 96.9107 79.472 96.0067 79.472H93.6667V83H92.4187ZM93.6667 78.476H95.8747C96.4427 78.476 96.8707 78.348 97.1587 78.092C97.4467 77.836 97.5907 77.472 97.5907 77C97.5907 76.536 97.4467 76.176 97.1587 75.92C96.8707 75.664 96.4427 75.536 95.8747 75.536H93.6667V78.476ZM100.917 83V74.54H102.165V81.932H106.317V83H100.917ZM107.405 78.764C107.405 77.876 107.561 77.108 107.873 76.46C108.185 75.812 108.637 75.312 109.229 74.96C109.829 74.608 110.541 74.432 111.365 74.432C112.181 74.432 112.885 74.608 113.477 74.96C114.069 75.312 114.525 75.812 114.845 76.46C115.173 77.108 115.337 77.872 115.337 78.752C115.337 79.64 115.173 80.412 114.845 81.068C114.525 81.716 114.065 82.22 113.465 82.58C112.873 82.932 112.173 83.108 111.365 83.108C110.541 83.108 109.833 82.932 109.241 82.58C108.649 82.22 108.193 81.716 107.873 81.068C107.561 80.412 107.405 79.644 107.405 78.764ZM108.713 78.764C108.713 79.788 108.937 80.588 109.385 81.164C109.833 81.74 110.493 82.028 111.365 82.028C112.213 82.028 112.869 81.744 113.333 81.176C113.797 80.6 114.029 79.796 114.029 78.764C114.029 77.732 113.797 76.932 113.333 76.364C112.877 75.796 112.221 75.512 111.365 75.512C110.493 75.512 109.833 75.796 109.385 76.364C108.937 76.932 108.713 77.732 108.713 78.764ZM117.644 83V74.54H121.22C122.124 74.54 122.824 74.756 123.32 75.188C123.816 75.612 124.064 76.208 124.064 76.976C124.064 77.48 123.952 77.912 123.728 78.272C123.504 78.632 123.188 78.908 122.78 79.1C122.372 79.284 121.892 79.376 121.34 79.376L121.532 79.184H121.856C122.184 79.184 122.476 79.268 122.732 79.436C122.996 79.604 123.212 79.872 123.38 80.24L124.592 83H123.224L122.024 80.228C121.904 79.9 121.716 79.688 121.46 79.592C121.212 79.496 120.904 79.448 120.536 79.448H118.892V83H117.644ZM118.892 78.5H121.016C121.616 78.5 122.068 78.372 122.372 78.116C122.684 77.86 122.84 77.492 122.84 77.012C122.84 76.524 122.684 76.156 122.372 75.908C122.068 75.66 121.616 75.536 121.016 75.536H118.892V78.5ZM126.612 83V74.54H132.156V75.536H127.824V78.2H131.88V79.208H127.824V81.992H132.156V83H126.612Z" fill="#5E6B7E"/>
<defs>
<clipPath id="clip0_0_4610">
<rect width="24" height="48" fill="white" transform="translate(53.5)"/>
</clipPath>
</defs>
</svg>
