<svg width="497" height="878" viewBox="0 0 497 878" fill="none" xmlns="http://www.w3.org/2000/svg">
<g clip-path="url(#clip0_0_3347)">
<rect opacity="0.5" x="24" y="758" width="450" height="120" rx="24" fill="#222325"/>
<g filter="url(#filter0_d_0_3347)">
<rect x="20" y="802" width="458" height="52" rx="16" fill="#D9D9D9"/>
</g>
<g clip-path="url(#clip1_0_3347)">
<rect x="408" y="8" width="80" height="80" rx="24" fill="#C54D1F"/>
<path d="M0 35.1399C0 17.5663 14.1685 3.28019 31.7392 3.13699L416.515 0.00106391C424.842 -0.0668012 432.867 3.11443 438.887 8.86917L463.5 32.3992L487.103 54.9486C493.424 60.987 497 69.3488 497 78.0909V821.996C497 839.671 482.673 854 465 854H32C14.3269 854 0 839.671 0 821.996V35.1399Z" fill="#373368"/>
<g clip-path="url(#clip2_0_3347)">
<path d="M56 795C56 792.791 57.7909 791 60 791H64C66.2091 791 68 792.791 68 795V820C68 820.552 67.5523 821 67 821H57C56.4477 821 56 820.552 56 820V795Z" fill="#5E6B7E"/>
<path d="M82.6396 706C82.6396 703.791 84.4305 702 86.6396 702H90.6396C92.8488 702 94.6396 703.791 94.6396 706V820C94.6396 820.552 94.1919 821 93.6396 821H83.6396C83.0874 821 82.6396 820.552 82.6396 820V706Z" fill="#5E6B7E"/>
<path d="M109.28 751C109.28 748.791 111.071 747 113.28 747H117.28C119.489 747 121.28 748.791 121.28 751V820C121.28 820.552 120.833 821 120.28 821H110.28C109.728 821 109.28 820.552 109.28 820V751Z" fill="#5E6B7E"/>
<path d="M135.92 629C135.92 626.791 137.711 625 139.92 625H143.92C146.129 625 147.92 626.791 147.92 629V820C147.92 820.552 147.472 821 146.92 821H136.92C136.368 821 135.92 820.552 135.92 820V629Z" fill="#5E6B7E"/>
<path opacity="0.5" d="M162.56 732C162.56 729.791 164.35 728 166.56 728H170.56C172.769 728 174.56 729.791 174.56 732V820C174.56 820.552 174.112 821 173.56 821H163.56C163.007 821 162.56 820.552 162.56 820V732Z" fill="#5E6B7E"/>
<path d="M189.2 700C189.2 697.791 190.991 696 193.2 696H197.2C199.409 696 201.2 697.791 201.2 700V820C201.2 820.552 200.752 821 200.2 821H190.2C189.648 821 189.2 820.552 189.2 820V700Z" fill="#C54D1F"/>
<path d="M215.84 771C215.84 768.791 217.631 767 219.84 767H223.84C226.049 767 227.84 768.791 227.84 771V820C227.84 820.552 227.392 821 226.84 821H216.84C216.288 821 215.84 820.552 215.84 820V771Z" fill="#5E6B7E"/>
<path d="M242.48 700C242.48 697.791 244.271 696 246.48 696H250.48C252.69 696 254.48 697.791 254.48 700V820C254.48 820.552 254.033 821 253.48 821H243.48C242.928 821 242.48 820.552 242.48 820V700Z" fill="#5E6B7E"/>
<path d="M269.12 676C269.12 673.791 270.911 672 273.12 672H277.12C279.329 672 281.12 673.791 281.12 676V820C281.12 820.552 280.672 821 280.12 821H270.12C269.568 821 269.12 820.552 269.12 820V676Z" fill="#5E6B7E"/>
<path d="M295.76 718C295.76 715.791 297.551 714 299.76 714H303.76C305.969 714 307.76 715.791 307.76 718V820C307.76 820.552 307.312 821 306.76 821H296.76C296.207 821 295.76 820.552 295.76 820V718Z" fill="#5E6B7E"/>
<path d="M322.4 778C322.4 775.791 324.191 774 326.4 774H330.4C332.61 774 334.4 775.791 334.4 778V820C334.4 820.552 333.953 821 333.4 821H323.4C322.848 821 322.4 820.552 322.4 820V778Z" fill="#5E6B7E"/>
<path d="M349.04 764C349.04 761.791 350.831 760 353.04 760H357.04C359.249 760 361.04 761.791 361.04 764V820C361.04 820.552 360.592 821 360.04 821H350.04C349.488 821 349.04 820.552 349.04 820V764Z" fill="#5E6B7E"/>
<path d="M375.68 726C375.68 723.791 377.471 722 379.68 722H383.68C385.889 722 387.68 723.791 387.68 726V820C387.68 820.552 387.232 821 386.68 821H376.68C376.127 821 375.68 820.552 375.68 820V726Z" fill="#5E6B7E"/>
<path d="M402.32 795C402.32 792.791 404.111 791 406.32 791H410.32C412.529 791 414.32 792.791 414.32 795V820C414.32 820.552 413.873 821 413.32 821H403.32C402.768 821 402.32 820.552 402.32 820V795Z" fill="#5E6B7E"/>
<path d="M428.96 726C428.96 723.791 430.751 722 432.96 722H436.96C439.169 722 440.96 723.791 440.96 726V820C440.96 820.552 440.512 821 439.96 821H429.96C429.408 821 428.96 820.552 428.96 820V726Z" fill="#5E6B7E"/>
</g>
</g>
<g clip-path="url(#clip3_0_3347)">
<rect x="0.25" y="625.25" width="496.5" height="0.5" stroke="#808080" stroke-width="0.5" stroke-dasharray="8 8"/>
<path d="M0 636V614L10.5401 622.521C12.5543 624.149 12.4733 626.877 10.3651 628.419L0 636Z" fill="#17172C"/>
</g>
</g>
<defs>
<filter id="filter0_d_0_3347" x="-8" y="802" width="514" height="112" filterUnits="userSpaceOnUse" color-interpolation-filters="sRGB">
<feFlood flood-opacity="0" result="BackgroundImageFix"/>
<feColorMatrix in="SourceAlpha" type="matrix" values="0 0 0 0 0 0 0 0 0 0 0 0 0 0 0 0 0 0 127 0" result="hardAlpha"/>
<feMorphology radius="10" operator="erode" in="SourceAlpha" result="effect1_dropShadow_0_3347"/>
<feOffset dy="32"/>
<feGaussianBlur stdDeviation="19"/>
<feColorMatrix type="matrix" values="0 0 0 0 0 0 0 0 0 0 0 0 0 0 0 0 0 0 0.25 0"/>
<feBlend mode="normal" in2="BackgroundImageFix" result="effect1_dropShadow_0_3347"/>
<feBlend mode="normal" in="SourceGraphic" in2="effect1_dropShadow_0_3347" result="shape"/>
</filter>
<clipPath id="clip0_0_3347">
<rect width="497" height="878" fill="white"/>
</clipPath>
<clipPath id="clip1_0_3347">
<rect width="497" height="854" fill="white"/>
</clipPath>
<clipPath id="clip2_0_3347">
<rect width="384.96" height="196" fill="white" transform="translate(56 625)"/>
</clipPath>
<clipPath id="clip3_0_3347">
<rect width="497" height="22" fill="white" transform="translate(0 614)"/>
</clipPath>
</defs>
</svg>
