<svg width="327" height="579" viewBox="0 0 327 579" fill="none" xmlns="http://www.w3.org/2000/svg">
<g clip-path="url(#clip0_0_4672)">
<g clip-path="url(#clip1_0_4672)">
<g clip-path="url(#clip2_0_4672)">
<rect opacity="0.5" x="15.791" y="499.402" width="296.076" height="78.9537" rx="15.7907" fill="#222325"/>
<g filter="url(#filter0_d_0_4672)">
<rect x="13.1592" y="528.352" width="301.34" height="34.2133" rx="10.5272" fill="#D9D9D9"/>
</g>
<g clip-path="url(#clip3_0_4672)">
<rect x="268.442" y="5.94141" width="52.6358" height="52.6358" rx="15.7907" fill="#C54D1F"/>
<path d="M0 23.798C0 12.2354 9.32211 2.83593 20.8828 2.74171L274.045 0.678434C279.524 0.633782 284.804 2.72688 288.765 6.51318L304.959 21.9947L320.489 36.8311C324.647 40.8041 327 46.3056 327 52.0575V541.508C327 553.138 317.574 562.565 305.946 562.565H21.0543C9.42634 562.565 0 553.138 0 541.508V23.798Z" fill="#373368"/>
<g clip-path="url(#clip4_0_4672)">
<path d="M36.8447 523.746C36.8447 522.293 38.023 521.114 39.4765 521.114H42.1083C43.5618 521.114 44.7401 522.293 44.7401 523.746V540.195C44.7401 540.558 44.4455 540.853 44.0822 540.853H37.5027C37.1393 540.853 36.8447 540.558 36.8447 540.195V523.746Z" fill="#5E6B7E"/>
<path d="M54.3701 465.189C54.3701 463.735 55.5484 462.557 57.0019 462.557H59.6337C61.0872 462.557 62.2655 463.735 62.2655 465.189V540.195C62.2655 540.558 61.9709 540.853 61.6075 540.853H55.0281C54.6647 540.853 54.3701 540.558 54.3701 540.195V465.189Z" fill="#5E6B7E"/>
<path d="M71.8955 494.796C71.8955 493.343 73.0738 492.165 74.5273 492.165H77.1591C78.6126 492.165 79.7909 493.343 79.7909 494.796V540.195C79.7909 540.558 79.4963 540.853 79.1329 540.853H72.5535C72.1901 540.853 71.8955 540.558 71.8955 540.195V494.796Z" fill="#5E6B7E"/>
<path d="M89.4209 414.527C89.4209 413.073 90.5992 411.895 92.0527 411.895H94.6845C96.138 411.895 97.3163 413.073 97.3163 414.527V540.195C97.3163 540.558 97.0217 540.853 96.6583 540.853H90.0788C89.7155 540.853 89.4209 540.558 89.4209 540.195V414.527Z" fill="#5E6B7E"/>
<path opacity="0.5" d="M106.946 482.295C106.946 480.842 108.125 479.664 109.578 479.664H112.21C113.663 479.664 114.842 480.842 114.842 482.295V540.195C114.842 540.558 114.547 540.853 114.184 540.853H107.604C107.241 540.853 106.946 540.558 106.946 540.195V482.295Z" fill="#5E6B7E"/>
<path d="M124.472 461.241C124.472 459.788 125.65 458.609 127.103 458.609H129.735C131.189 458.609 132.367 459.788 132.367 461.241V540.195C132.367 540.558 132.072 540.853 131.709 540.853H125.13C124.766 540.853 124.472 540.558 124.472 540.195V461.241Z" fill="#C54D1F"/>
<path d="M141.997 507.955C141.997 506.502 143.175 505.323 144.629 505.323H147.261C148.714 505.323 149.892 506.502 149.892 507.955V540.195C149.892 540.558 149.598 540.853 149.234 540.853H142.655C142.292 540.853 141.997 540.558 141.997 540.195V507.955Z" fill="#5E6B7E"/>
<path d="M159.522 461.241C159.522 459.788 160.701 458.609 162.154 458.609H164.786C166.24 458.609 167.418 459.788 167.418 461.241V540.195C167.418 540.558 167.123 540.853 166.76 540.853H160.18C159.817 540.853 159.522 540.558 159.522 540.195V461.241Z" fill="#5E6B7E"/>
<path opacity="0.5" d="M177.048 445.45C177.048 443.997 178.226 442.819 179.68 442.819H182.311C183.765 442.819 184.943 443.997 184.943 445.45V540.195C184.943 540.558 184.649 540.853 184.285 540.853H177.706C177.342 540.853 177.048 540.558 177.048 540.195V445.45Z" fill="#5E6B7E"/>
<path d="M194.573 473.084C194.573 471.631 195.752 470.452 197.205 470.452H199.837C201.29 470.452 202.469 471.631 202.469 473.084V540.195C202.469 540.558 202.174 540.853 201.811 540.853H195.231C194.868 540.853 194.573 540.558 194.573 540.195V473.084Z" fill="#5E6B7E"/>
<path d="M212.099 512.561C212.099 511.107 213.277 509.929 214.73 509.929H217.362C218.816 509.929 219.994 511.107 219.994 512.561V540.195C219.994 540.558 219.699 540.853 219.336 540.853H212.757C212.393 540.853 212.099 540.558 212.099 540.195V512.561Z" fill="#5E6B7E"/>
<path d="M229.624 503.35C229.624 501.896 230.802 500.718 232.256 500.718H234.888C236.341 500.718 237.519 501.896 237.519 503.35V540.195C237.519 540.558 237.225 540.853 236.861 540.853H230.282C229.919 540.853 229.624 540.558 229.624 540.195V503.35Z" fill="#5E6B7E"/>
<path d="M247.149 478.348C247.149 476.894 248.328 475.716 249.781 475.716H252.413C253.866 475.716 255.045 476.894 255.045 478.348V540.195C255.045 540.558 254.75 540.853 254.387 540.853H247.807C247.444 540.853 247.149 540.558 247.149 540.195V478.348Z" fill="#5E6B7E"/>
<path d="M264.675 523.746C264.675 522.293 265.853 521.114 267.307 521.114H269.938C271.392 521.114 272.57 522.293 272.57 523.746V540.195C272.57 540.558 272.276 540.853 271.912 540.853H265.333C264.969 540.853 264.675 540.558 264.675 540.195V523.746Z" fill="#5E6B7E"/>
<path d="M282.2 478.348C282.2 476.894 283.378 475.716 284.832 475.716H287.464C288.917 475.716 290.096 476.894 290.096 478.348V540.195C290.096 540.558 289.801 540.853 289.438 540.853H282.858C282.495 540.853 282.2 540.558 282.2 540.195V478.348Z" fill="#5E6B7E"/>
</g>
</g>
<g clip-path="url(#clip5_0_4672)">
<rect x="0.164487" y="412.06" width="326.671" height="0.328974" stroke="#808080" stroke-width="0.328974" stroke-dasharray="5.26 5.26"/>
<path d="M0 419.133V404.658L6.93484 410.264C8.26006 411.335 8.2068 413.13 6.8197 414.145L0 419.133Z" fill="#17172C"/>
</g>
</g>
</g>
</g>
<defs>
<filter id="filter0_d_0_4672" x="-5.26335" y="528.352" width="338.185" height="73.6902" filterUnits="userSpaceOnUse" color-interpolation-filters="sRGB">
<feFlood flood-opacity="0" result="BackgroundImageFix"/>
<feColorMatrix in="SourceAlpha" type="matrix" values="0 0 0 0 0 0 0 0 0 0 0 0 0 0 0 0 0 0 127 0" result="hardAlpha"/>
<feMorphology radius="6.57948" operator="erode" in="SourceAlpha" result="effect1_dropShadow_0_4672"/>
<feOffset dy="21.0543"/>
<feGaussianBlur stdDeviation="12.501"/>
<feColorMatrix type="matrix" values="0 0 0 0 0 0 0 0 0 0 0 0 0 0 0 0 0 0 0.25 0"/>
<feBlend mode="normal" in2="BackgroundImageFix" result="effect1_dropShadow_0_4672"/>
<feBlend mode="normal" in="SourceGraphic" in2="effect1_dropShadow_0_4672" result="shape"/>
</filter>
<clipPath id="clip0_0_4672">
<rect width="327" height="577.678" fill="white" transform="translate(0 0.677734)"/>
</clipPath>
<clipPath id="clip1_0_4672">
<rect width="327" height="577.678" fill="white" transform="translate(0 0.677734)"/>
</clipPath>
<clipPath id="clip2_0_4672">
<rect width="327" height="577.678" fill="white" transform="translate(0 0.677734)"/>
</clipPath>
<clipPath id="clip3_0_4672">
<rect width="327" height="561.887" fill="white" transform="translate(0 0.677734)"/>
</clipPath>
<clipPath id="clip4_0_4672">
<rect width="253.251" height="128.958" fill="white" transform="translate(36.8447 411.895)"/>
</clipPath>
<clipPath id="clip5_0_4672">
<rect width="327" height="14.4748" fill="white" transform="translate(0 404.658)"/>
</clipPath>
</defs>
</svg>
