<svg width="352" height="537" viewBox="0 0 352 537" fill="none" xmlns="http://www.w3.org/2000/svg">
<path opacity="0.326497" fill-rule="evenodd" clip-rule="evenodd" d="M340.799 234.222C340.779 234.006 340.73 233.791 340.653 233.58L283.757 76.0408C283.483 75.2787 282.866 74.6872 282.096 74.4415L135.659 27.9722L5.50647 0.691842C4.78322 0.540681 4.02669 0.699746 3.43014 1.14229L-147.151 111.692C-147.434 111.896 -147.654 112.166 -147.834 112.458C-147.841 112.478 -147.865 112.486 -147.877 112.506C-147.905 112.555 -147.894 112.616 -147.918 112.667C-148.007 112.848 -148.108 113.024 -148.154 113.222L-193.69 316.894C-193.735 317.096 -193.714 317.302 -193.711 317.506C-193.711 317.565 -193.746 317.615 -193.743 317.677C-193.742 317.703 -193.721 317.721 -193.716 317.746C-193.678 318.109 -193.582 318.463 -193.394 318.785L-104.751 469.671C-104.49 470.113 -104.109 470.467 -103.647 470.694L15.0399 528.701C15.0441 528.704 15.0477 528.703 15.0512 528.702C15.3356 528.839 15.6414 528.91 15.9581 528.939C15.9913 528.94 16.0206 528.961 16.0539 528.962L167.201 536.501C167.397 536.511 167.593 536.498 167.782 536.465C168.283 536.376 168.748 536.144 169.121 535.789L293.008 418.354L350.69 348.243C350.916 347.965 351.075 347.644 351.174 347.307C351.187 347.257 351.178 347.208 351.187 347.155C351.247 346.891 351.298 346.622 351.271 346.344L340.799 234.222Z" fill="#373368"/>
</svg>
