<svg width="324" height="537" viewBox="0 0 324 537" fill="none" xmlns="http://www.w3.org/2000/svg">
<path opacity="0.326497" fill-rule="evenodd" clip-rule="evenodd" d="M312.799 234.222C312.779 234.006 312.73 233.791 312.653 233.58L255.757 76.0408C255.483 75.2787 254.866 74.6872 254.096 74.4415L107.659 27.9722L-22.4935 0.691842C-23.2168 0.540681 -23.9733 0.699746 -24.5699 1.14229L-175.151 111.692C-175.434 111.896 -175.654 112.166 -175.834 112.458C-175.841 112.478 -175.865 112.486 -175.877 112.506C-175.905 112.555 -175.894 112.616 -175.918 112.667C-176.007 112.848 -176.108 113.024 -176.154 113.222L-221.69 316.894C-221.735 317.096 -221.714 317.302 -221.711 317.506C-221.711 317.565 -221.746 317.615 -221.743 317.677C-221.742 317.703 -221.721 317.721 -221.716 317.746C-221.678 318.109 -221.582 318.463 -221.394 318.785L-132.751 469.671C-132.49 470.113 -132.109 470.467 -131.647 470.694L-12.9601 528.701C-12.9559 528.704 -12.9523 528.703 -12.9488 528.702C-12.6644 528.839 -12.3586 528.91 -12.0419 528.939C-12.0087 528.94 -11.9794 528.961 -11.9461 528.962L139.201 536.501C139.397 536.511 139.593 536.498 139.782 536.465C140.283 536.376 140.748 536.144 141.121 535.789L265.008 418.354L322.69 348.243C322.916 347.965 323.075 347.644 323.174 347.307C323.187 347.257 323.178 347.208 323.187 347.155C323.247 346.891 323.298 346.622 323.271 346.344L312.799 234.222Z" fill="#373368"/>
</svg>
